<?xml version="1.0" encoding="UTF-8"?>
<svg xmlns="http://www.w3.org/2000/svg" viewBox="0 0 512 512" width="512" height="512">
  <rect width="512" height="512" fill="#f4efe6"/>
  <g transform="translate(256 256)">
    <!-- foglia -->
    <path d="M -130 60 C -130 -60, -40 -150, 110 -130 C 130 20, 50 130, -110 130 C -130 110, -130 80, -130 60 Z"
          fill="#5b6f47"/>
    <!-- nervatura centrale -->
    <path d="M -110 110 C -40 40, 40 -40, 100 -120"
          stroke="#f4efe6" stroke-width="6" stroke-linecap="round" fill="none" opacity="0.85"/>
    <!-- nervature laterali -->
    <path d="M -60 80 C -30 60, 0 40, 30 10"
          stroke="#f4efe6" stroke-width="3" stroke-linecap="round" fill="none" opacity="0.7"/>
    <path d="M -30 100 C 0 80, 30 60, 60 30"
          stroke="#f4efe6" stroke-width="3" stroke-linecap="round" fill="none" opacity="0.7"/>
    <!-- goccia -->
    <path d="M 90 -10 C 90 30, 60 50, 50 50 C 40 50, 10 30, 10 -10 C 10 -40, 50 -80, 50 -80 C 50 -80, 90 -40, 90 -10 Z"
          fill="#a05e44"/>
    <!-- highlight goccia -->
    <ellipse cx="35" cy="-20" rx="6" ry="14" fill="#f4efe6" opacity="0.55"/>
  </g>
</svg>